<svg xmlns="http://www.w3.org/2000/svg" viewBox="0 0 64 64">
  <defs>
    <linearGradient id="g" x1="0" x2="0" y1="0" y2="1">
      <stop offset="0" stop-color="#2a9d5b"/>
      <stop offset="1" stop-color="#0b2a1a"/>
    </linearGradient>
  </defs>

  <!-- ornament background -->
  <circle cx="32" cy="34" r="26" fill="rgba(255,247,234,0.95)"/>
  <circle cx="32" cy="34" r="26" fill="none" stroke="rgba(200,29,37,0.55)" stroke-width="3"/>

  <!-- tree -->
  <path d="M32 14
           L22 26 H27
           L18 38 H24
           L16 50 H48
           L40 38 H46
           L37 26 H42 Z"
        fill="url(#g)" stroke="rgba(18,32,22,0.35)" stroke-width="1.5" />

  <!-- trunk -->
  <rect x="28" y="50" width="8" height="7" rx="2" fill="#8b5a2b"/>

  <!-- star -->
  <path d="M32 10 l2.2 4.7 5.2.7-3.8 3.6.9 5.1-4.5-2.5-4.5 2.5.9-5.1-3.8-3.6 5.2-.7z"
        fill="#e9c46a" stroke="rgba(18,32,22,0.25)" stroke-width="1"/>

  <!-- tiny lights -->
  <circle cx="26" cy="33" r="2" fill="#c81d25"/>
  <circle cx="38" cy="34" r="2" fill="#e9c46a"/>
  <circle cx="32" cy="42" r="2" fill="#2a9d5b"/>
</svg>